# xmcd
#
# Track frame offsets:
#	150
#	10468
#	22244
#	39974
#	51643
#	62523
#	73208
#	86465
#	99425
#	111672
#	124671
#	136951
#	149570
#	161622
#	174253
#	187099
#	209831
#	219025
#	229569
#	239259
#
# Disc length: 3329 seconds
#
# Revision: 0
# Processed by: cddbd v1.5.1PL2 Copyright (c) Steve Scherf et al.
# Submitted via: EasyCDDAExtractor 4.6.9.1
#
DISCID=2a0cff14
DTITLE=Billy Walker - The Best Of Billy Walker
DYEAR=1994
DGENRE=Country
TTITLE0=Charlie's Shoes
TTITLE1=Bear With Me A Little Longer
TTITLE2=Matamoros
TTITLE3=I'm Gonna Keep On, Keep On Lovin' You
TTITLE4=When A Man Loves A Woman
TTITLE5=Willie The Weeper
TTITLE6=Cross The Brazos At Waco
TTITLE7=Anything Your Heart Desires
TTITLE8=She Goes Walking Through My Mind
TTITLE9=Funny How Time Slips Away
TTITLE10=A Million And One
TTITLE11=Ramona
TTITLE12=Circumstances
TTITLE13=Sing A Love Song To Baby
TTITLE14=From the Bottle To The Bottom
TTITLE15=El Paso
TTITLE16=I Taught Her Everything She Knows
TTITLE17=Thinking 'Bout You, Babe
TTITLE18=Age Of Worry
TTITLE19=Smokey Places
EXTD=
EXTT0=
EXTT1=
EXTT2=
EXTT3=
EXTT4=
EXTT5=
EXTT6=
EXTT7=
EXTT8=
EXTT9=
EXTT10=
EXTT11=
EXTT12=
EXTT13=
EXTT14=
EXTT15=
EXTT16=
EXTT17=
EXTT18=
EXTT19=
PLAYORDER=
